<svg width="50" height="43" viewBox="0 0 50 43" fill="none" xmlns="http://www.w3.org/2000/svg">
<path fill-rule="evenodd" clip-rule="evenodd" d="M25.3636 41.1995L35.7296 18.4165L37.6513 21.7671L25.3636 41.1995Z" fill="white"/>
<path fill-rule="evenodd" clip-rule="evenodd" d="M46.1387 36.3927L47.4912 38.7256L26.9516 42.381L46.1387 36.3927ZM43.9094 32.5473L45.2582 34.8738L25.7107 42.43L43.9094 32.5473ZM41.6625 28.6714L42.9902 30.9616L25.8964 41.9617L41.6625 28.6714ZM38.8964 23.9093L40.5144 26.7305L25.373 41.9551L38.8964 23.9093ZM31.3507 10.9342L34.038 15.6194L25.0408 41.0663L31.3507 10.9342ZM25.0408 0L29.2221 7.29022L24.8887 40.5233L25.0408 0ZM21.5571 6.4127L18.4897 11.5473L24.7557 40.6543L21.5571 6.4127ZM16.133 15.3835L14.2113 18.7342L24.5223 41.2371L16.133 15.3835ZM12.3453 21.9362L10.7272 24.7574L24.2341 41.5173L12.3453 21.9362ZM9.17846 27.2298L7.76994 29.651L24.3126 42.0739L9.17846 27.2298ZM6.36967 32.0454L5.02094 34.3719L23.7512 42.1715L6.36967 32.0454ZM3.86119 36.3927L2.50866 38.7256L23.0483 42.381L3.86119 36.3927Z" fill="white"/>
<path fill-rule="evenodd" clip-rule="evenodd" d="M25.744 42.9999L48.4594 40.3955L50 42.999L25.744 42.9999Z" fill="white"/>
<path fill-rule="evenodd" clip-rule="evenodd" d="M24.2559 42.9999L1.54051 40.3955L0 42.999L24.2559 42.9999Z" fill="white"/>
</svg>
