<svg width="64" height="64" viewBox="0 0 64 64" fill="none" xmlns="http://www.w3.org/2000/svg">
<path d="M32 6C17.641 6 6 17.641 6 32C6 46.359 17.641 58 32 58C46.359 58 58 46.359 58 32C58 17.641 46.359 6 32 6ZM42.323 43C41.104 39.196 38.066 36.253 34.048 35.853V43H33.428C22.496 43 16.26 35.492 16 23H21.477C21.657 32.169 25.694 36.053 28.892 36.854V23H34.049V30.908C37.207 30.568 40.525 26.964 41.644 23H46.801C45.942 27.885 42.344 31.488 39.785 32.97C42.343 34.171 46.441 37.314 48 43H42.323Z" fill="black"/>
</svg>
